<svg xmlns="http://www.w3.org/2000/svg" xml:space="preserve" fill-rule="evenodd" stroke-linejoin="round" stroke-miterlimit="2" clip-rule="evenodd" viewBox="0 0 216 46">
  <path fill="none" d="M-.001 0h216v46h-216z"/>
  <g fill-rule="nonzero">
    <path d="M24.4 8.31v23.787c-.061 3.73-1.346 5.593-3.85 5.593H5.514v-5.593H19.45c1.222 0 1.864-.58 1.925-1.74V8.31H24.4ZM42.595 32.097v-3.85H31.09v2.11c0 .58.17 1.016.505 1.305.335.29.81.435 1.42.435h9.58Zm-14.53-9.945v-2.84H41.77c2.507 0 3.79 1.878 3.85 5.635V37.69H31.916c-1.252 0-2.206-.467-2.864-1.399-.657-.93-.986-2.33-.986-4.194v-5.5h14.53v-3.162c0-.856-.397-1.283-1.192-1.283H28.065ZM49.287 24.947c.03-3.757 1.313-5.636 3.85-5.636h3.896v5.636h-2.796c-1.253 0-1.895.566-1.925 1.698V37.69h-3.025V24.947ZM63.725 26.002h11.503v-2.567c0-.856-.397-1.283-1.192-1.283H63.725v3.85Zm.823 11.688c-2.504 0-3.787-1.864-3.848-5.593V19.311h13.702c1.254 0 2.208.465 2.866 1.397.657.932.985 2.345.985 4.24v2.613H63.725v2.795c0 .581.167 1.017.503 1.306.336.29.81.435 1.422.435h12.603v5.593H64.548ZM84.945 30.356c.06 1.161.703 1.741 1.925 1.741h9.58v-9.945H84.944v8.204Zm.825 7.334c-2.507 0-3.79-1.864-3.85-5.593V19.311h14.53v-11h3.024V37.69H85.77ZM111.39 8.31h25.667v5.638h-10.77V37.69h-3.805V13.948H111.39V8.31Z"/>
    <path d="M146.177 32.097v-3.85h-11.503v2.11c0 .58.168 1.016.504 1.305.337.29.81.435 1.422.435h9.577Zm-14.527-9.945v-2.84h13.704c2.505 0 3.787 1.878 3.848 5.635V37.69H135.5c-1.254 0-2.208-.467-2.866-1.399-.657-.93-.984-2.33-.984-4.194v-5.5h14.527v-3.162c0-.856-.396-1.283-1.19-1.283H131.65ZM155.894 30.356c.061 1.161.704 1.741 1.925 1.741h9.58V19.311h3.025v20.12c-.061 3.729-1.344 5.592-3.85 5.592h-7.93v-4.308h6.83c1.07 0 1.711-.612 1.925-1.833V37.69h-10.68c-2.504 0-3.789-1.864-3.85-5.593V19.311h3.025v11.045ZM174.091 8.31h3.759v29.287h-3.759zM184.54 22.152v8.204c.061 1.161.703 1.741 1.925 1.741h9.58v-8.662c0-.856-.397-1.283-1.192-1.283H184.54Zm.825 15.538c-2.504 0-3.789-1.864-3.85-5.593V19.311h13.704c2.507 0 3.79 1.88 3.85 5.636V37.69h-13.704ZM202.737 24.947c.03-3.757 1.313-5.636 3.85-5.636h3.896v5.636h-2.796c-1.253 0-1.895.566-1.925 1.698V37.69h-3.025V24.947Z"/>
  </g>
</svg>