<svg width="39" height="43" viewBox="0 0 39 43" fill="#ffffff" xmlns="http://www.w3.org/2000/svg">
<g filter="url(#filter0_d_611_5520)">
<path d="M3.75575 41.544C5.02275 42.2378 6.57633 42.5848 8.4165 42.5848C10.317 42.5848 11.8857 42.1775 13.1225 41.363C14.3593 40.5787 15.2794 39.4625 15.8827 38.0145C16.4861 36.5967 16.7877 34.9375 16.7877 33.037V7.835C16.7877 7.55886 17.0116 7.335 17.2877 7.335H22.5512C22.8274 7.335 23.0512 7.55886 23.0512 7.835V23.082C23.0512 24.8618 23.4585 26.4758 24.273 27.9238C25.1176 29.3718 26.264 30.5332 27.712 31.408C29.1901 32.2527 30.8946 32.675 32.8252 32.675H34.676C35.2283 32.675 35.676 32.2273 35.676 31.675V27.34C35.676 26.7877 35.2283 26.34 34.676 26.34H33.1872C32.4632 26.34 31.8599 26.0836 31.3772 25.5708C30.8946 25.0579 30.6532 24.4546 30.6532 23.7608V7.835C30.6532 7.55886 30.8771 7.335 31.1532 7.335H35.3822C35.5635 7.335 35.7307 7.23679 35.819 7.07835L38.3772 2.4867C38.7485 1.82015 38.2666 1 37.5036 1H2.06387C1.30085 1 0.81894 1.82015 1.1903 2.4867L3.74851 7.07835C3.83678 7.23679 4.00393 7.335 4.18529 7.335H9.093C9.36914 7.335 9.593 7.55886 9.593 7.835V19.2615C9.593 19.6108 9.40998 19.9338 9.1147 20.1203C6.95423 21.4854 5.21316 22.9553 3.8915 24.53C2.50383 26.2193 1.50833 27.9388 0.904999 29.6885C0.301666 31.408 0 33.037 0 34.5755C0 36.114 0.31675 37.4866 0.95025 38.6933C1.58375 39.8999 2.51892 40.8502 3.75575 41.544ZM8.9595 35.752C8.688 35.9632 8.37125 36.0688 8.00925 36.0688C7.52658 36.0688 7.10425 35.8576 6.74225 35.4353C6.38025 35.0129 6.19925 34.4096 6.19925 33.6253C6.19925 33.2029 6.2445 32.6298 6.335 31.9058C6.45567 31.1818 6.75733 30.3673 7.24 29.4623C7.75284 28.5271 8.5975 27.5768 9.774 26.6115V33.5348C9.774 34.0476 9.69858 34.485 9.54775 34.847C9.42708 35.2392 9.231 35.5408 8.9595 35.752Z" fill-opacity="0.99"/>
</g>
<defs>
<filter id="filter0_d_611_5520" x="0" y="0.5" width="38.505" height="42.0847" filterUnits="userSpaceOnUse" color-interpolation-filters="sRGB">
<feFlood flood-opacity="0" result="BackgroundImageFix"/>
<feColorMatrix in="SourceAlpha" type="matrix" values="0 0 0 0 0 0 0 0 0 0 0 0 0 0 0 0 0 0 127 0" result="hardAlpha"/>
<feOffset dy="-0.5"/>
<feComposite in2="hardAlpha" operator="out"/>
<feColorMatrix type="matrix" values="0 0 0 0 0.411765 0 0 0 0 0.411765 0 0 0 0 0.411765 0 0 0 1 0"/>
<feBlend mode="normal" in2="BackgroundImageFix" result="effect1_dropShadow_611_5520"/>
<feBlend mode="normal" in="SourceGraphic" in2="effect1_dropShadow_611_5520" result="shape"/>
</filter>
</defs>
</svg>
